<?xml version="1.0" encoding="utf-8"?>
<!-- Generator: Adobe Illustrator 27.5.0, SVG Export Plug-In . SVG Version: 6.00 Build 0)  -->
<svg version="1.1" xmlns="http://www.w3.org/2000/svg" xmlns:xlink="http://www.w3.org/1999/xlink" x="0px" y="0px"
	 viewBox="0 0 500 500" style="enable-background:new 0 0 500 500;" xml:space="preserve">
<g id="BACKGROUND">
	<rect style="fill:#FFFFFF;" width="500" height="500"/>
</g>
<g id="OBJECTS">
	<g>
		<path style="fill:#DBF2DE;" d="M351.662,154.936c22.553,20.267,45.551,41.088,59.978,67.757
			c14.428,26.669,18.859,60.791,3.46,86.911c-11.232,19.052-31.234,31.29-51.699,39.677c-41.968,17.199-88.007,21.17-133.246,24.402
			c-16.019,1.144-32.899,2.066-47.335-4.973c-15.098-7.361-24.975-22.208-33.085-36.918c-22.21-40.284-36.745-84.782-42.598-130.408
			c-2.945-22.957-3.647-46.711,3.194-68.822c6.84-22.111,22.213-42.497,43.818-50.794c20.567-7.898,43.684-4.103,64.936,1.705
			C263.155,95.518,306.355,114.223,351.662,154.936z"/>
		<g>
			<path style="fill:#BCE8C2;" d="M419.803,241.845c-2.131-6.647-4.885-13.093-8.163-19.152
				c-11.1-20.519-27.275-37.576-44.417-53.582c-34.18,17.985-53.144,52.427-56.177,87.465c-3.072,35.49,8.381,70.982,27.261,101.375
				c8.495-2.447,16.873-5.302,25.093-8.671c8.952-3.668,17.814-8.073,25.894-13.463c-4.448-17.574-3.702-36.469,2.32-53.579
				C397.131,266.558,407.046,252.489,419.803,241.845z"/>
			<path style="fill:#BCE8C2;" d="M301.266,117.517c-16.573-9.884-33.007-17.48-49.46-23.6
				c-8.147,31.074-34.229,57.076-65.619,64.386c-16.357,3.808-33.416,2.891-50.088,4.912c-10.782,1.307-21.878,4.201-31.076,9.727
				c0.089,9.503,0.907,19.039,2.113,28.442c1.811,14.118,4.456,28.128,7.9,41.939c12.051-4.512,24.854-7.016,37.719-7.326
				c7.376-0.178,15.686,0.8,20.3,6.557c4.361,5.44,3.868,13.223,2.667,20.092c-4.092,23.407-13.991,45.752-28.445,64.605
				c0.809,1.519,1.626,3.034,2.457,4.542c8.11,14.71,17.986,29.557,33.085,36.918c6.962,3.395,14.495,4.928,22.224,5.487
				c12.045-15.114,15.286-34.661,15.954-53.139c0.795-22.006-1.185-44.511,4.946-65.66c7.976-27.513,28.549-49.183,46.068-71.85
				C286.948,164.221,300.495,141.357,301.266,117.517z"/>
		</g>
	</g>
	<ellipse style="opacity:0.15;fill:#2D3038;" cx="168.451" cy="451.852" rx="108.786" ry="11.545"/>
	<ellipse style="opacity:0.15;fill:#2D3038;" cx="388.388" cy="448.349" rx="29.035" ry="9.608"/>
	<g>
		<path style="fill:#2D3038;" d="M452.226,192.462c-1.791-7.765-3.965-15.442-6.511-23.653c-1.414-5.936-2.829-11.882-3.681-17.924
			c-0.359-2.544-0.613-5.166,0.019-7.657c1.091-4.305,4.773-8.199,3.812-12.536c-0.286-1.289-0.971-2.451-1.699-3.553
			c-1.996-3.021-4.429-5.871-5.421-9.353c-0.647-2.276-0.634-4.683-1.009-7.019c-0.559-3.488-1.707-6.551-3.416-9.353
			c1.016-0.413,2.126-0.698,3.117-1.166c2.252-1.062,3.897-3.146,4.905-5.422c1.008-2.276,1.448-4.758,1.839-7.217
			c0.51-3.203,0.953-6.469,0.5-9.681c-0.025-0.182-0.06-0.376-0.189-0.506c-0.249-0.25-0.672-0.122-0.984,0.044
			c-2.036,1.084-3.426,3.043-4.833,4.871c-3.233,4.204-6.944,8.034-11.011,11.438c-0.299-0.26-0.601-0.519-0.913-0.777
			c-0.58-0.479-1.187-0.925-1.818-1.34c1.552-3.366,2.841-6.853,3.847-10.42c0.264-0.932,0.309-2.255-0.62-2.528
			c-0.615-0.181-1.218,0.28-1.694,0.71c-2.156,1.946-4.314,3.892-6.47,5.837c-1.04,0.938-2.089,1.891-3.121,2.866
			c-3.758-1.047-7.739-1.522-11.471-1.663c-7.352-0.278-14.746,0.125-22.049-0.776c-3.914-0.482-7.824-1.341-11.76-1.095
			c-4.92,0.306-9.561,2.316-14.002,4.456c-12.193,5.876-25.3,11.12-35.205,20.692c-11.396,11.011-18.91,25.885-31.988,34.833
			c-2.792,1.91-5.722,3.616-8.446,5.621c-4.528,3.33-8.43,7.442-12.888,10.867c-5.544,4.258-11.938,7.395-18.684,9.225
			c-24.112-2.6-47.232-15.18-71.425-12.885c-8.747,0.831-17.202,3.599-25.324,6.95c-9.536,3.936-18.858,8.791-26.385,15.846
			c-1.084,1.016-2.125,2.075-3.122,3.172c-7.829-0.452-15.461,4.541-20.557,10.731c-5.637,6.848-9.171,15.176-14.312,22.404
			c-2.556,3.593-5.526,6.943-7.409,10.93c-2.635,5.582-2.946,12.005-5.297,17.713c-2.541,6.169-7.289,11.116-11.028,16.641
			c-3.74,5.525-6.56,12.431-4.28,18.989c-0.179-6.829,3.083-13.662,8.507-17.815c-2.464,1.973-3.569,5.193-4.076,8.31
			c-0.507,3.117-0.544,6.323-1.439,9.351c-1.42,4.807-4.988,9.283-4.122,13.825c2.203-3.971,4.097-8.112,5.66-12.375
			c1.243-3.392,2.435-7.089,4.961-8.645c-1.533,3.93-1.09,8.365-2.237,12.424c-1.537,5.441-5.738,9.67-8.422,14.647
			c-2.733,5.065-3.862,10.98-2.112,16.369c0.385-4.316,3.039-8.033,6.16-11.115c-1.015,3.354-1.522,6.981-2.471,10.365
			c-0.745,2.658-1.801,5.268-1.964,8.024c-0.146,2.456,0.427,4.892,1.535,7.072c-0.351-3.693,1.129-7.287,2.579-10.701
			c0.059,1.639,0.845,3.175,0.998,4.809c0.118,1.259-0.144,2.517-0.247,3.777c-0.329,4.025,0.973,8.016,3.617,10.899
			c-0.709-3.063,1.553-5.876,2.619-8.873c0.317,0.9,0.658,1.794,0.998,2.684c1.181,3.092,2.501,6.369,5.208,8.276
			c-1.447-7.43,0.805-15.487,5.893-21.091c-0.406,3.287-1.68,6.395-2.504,9.603c-0.824,3.208-1.167,6.731,0.231,9.734
			c-0.007-4.191,2.875-7.733,5.166-11.242c3.42-5.236,5.749-11.172,6.859-17.327c0.225,3.014,0.219,6.045-0.02,9.058
			c1.682-3.738,2.952-7.936,3.57-12.257c1.01-7.074,0.246-14.273,0.536-21.414c0.439-10.785,3.289-21.358,7.19-31.423
			c1.681-4.337,3.559-8.598,5.627-12.765c1.443,6.843,3.792,13.499,6.918,19.738c-0.008,6.053,1.733,12.098,4.958,17.22
			c1.891,3.003,4.311,5.758,5.375,9.144c1.499,4.767-0.175,10.367-4.043,13.53c-0.959,0.786-2.043,1.436-2.854,2.372
			c-2.197,2.539-1.802,6.45-0.467,9.53c1.07,2.469,2.647,4.709,3.77,7.143l-0.022,0.01c-2.186,1.829-3.643,4.626-4.581,7.387
			c-1.277,3.758-1.935,7.784-3.968,11.192c-0.88,1.475-2.015,2.831-2.538,4.467c-0.379,1.184-0.413,2.445-0.506,3.684
			c-0.435,5.764-2.208,11.332-3.969,16.838c-2.785,8.707-5.57,17.413-8.355,26.12c-0.371,1.16-0.769,2.366-1.625,3.234
			c-1.151,1.167-2.904,1.501-4.229,2.465c-1.697,1.237-2.508,3.394-2.672,5.487c-0.165,2.093,0.224,4.183,0.461,6.269
			c0.147,1.29,0.232,2.624-0.16,3.862c-0.392,1.238-1.36,2.37-2.637,2.605c-1.865,0.344-4.128-1.124-5.686,0.18
			c-3.29,2.752-6.35,5.788-8.849,9.993c0.055,2.75,0.113,5.523,0.739,8.201c0.627,2.679,1.873,5.289,3.956,7.086
			c1.096,0.945,2.39,1.639,3.73,2.189c0.858,0.352,1.747,0.65,2.667,0.77c2.693,0.352,5.401-0.876,7.433-2.681
			c2.03-1.803,3.142-4.374,4.945-6.75c3.48-4.588,4.513-10.49,7.421-15.46c1.788-3.054,4.495-5.504,6.182-8.614
			c1.779-3.278,2.31-7.062,2.98-10.731c3.379-18.523,12.05-35.512,23.116-51.828c1.28,2.741,2.475,5.54,3.911,8.171
			c0.521,0.954,1.055,1.957,1.073,3.044c0.019,1.152-0.545,2.231-0.718,3.371c-0.418,2.752,1.452,5.312,1.855,8.067
			c0.342,2.332-0.539,4.585-1.457,6.389c-1.899,3.732-5.375,6.31-8.178,9.413c-0.431,4.211-0.852,8.548,0.343,12.608
			c1.196,4.061,4.42,7.826,8.623,8.329c3.051,0.365,6.07-1.018,8.523-2.872c6.399-4.835,9.911-13.23,8.862-21.181
			c-0.127-0.962-0.316-1.929-0.228-2.895c0.117-1.296,0.72-2.489,1.283-3.662c0.789-1.645,1.525-3.344,1.794-5.148
			c0.269-1.805,0.028-3.747-1.007-5.249c-0.608-0.882-1.452-1.569-2.229-2.305c-2.048-1.938-3.891-4.181-5.172-6.554
			c-3.742-6.931-8.039-13.93-8.899-21.756c0.787-1.012,1.627-1.979,2.556-2.872c2.047-1.968,4.397-3.605,6.394-5.622
			c5.688-5.748,7.966-13.944,11.892-21.015c7.154-12.879,20.485-22.072,34.988-24.476c2.29,1.318,4.636,2.54,7.001,3.716
			c10.595,5.27,21.722,9.67,33.373,11.741c8.443,1.499,17.193,1.732,25.61,0.226c-0.416,3.844-1.713,7.611-1.826,11.522
			c-0.256,8.878-1.257,17.951-2.667,27.005c-0.94,6.041-3.008,11.839-4.55,17.755c-1.542,5.916-1.289,12.016-1.356,18.129
			c-0.043,3.891-1.756,7.202-3.033,10.461c-1.894,4.833-4.583,9.314-6.729,14.04c-2.146,4.728-3.766,9.868-3.319,15.04
			c0.277,3.21,1.34,6.3,1.011,9.724c-0.583,3.426,0.91,7.234-0.765,10.277c-0.595,1.083-1.538,1.937-2.169,2.999
			c-0.72,1.212-0.998,2.631-1.21,4.025c-0.476,3.121-0.687,6.283,0.063,10.299c7.31,4.459,16.971,4.766,24.441,0.277
			c-0.331-6.456-2.081-13.795-4.296-19.869c-2.783-7.858-2.662-16.524-0.912-24.675s4.23-16.32,8.569-23.439
			c4.056-6.655,9.258-12.514,10.231-19.865c0.46-3.474,0.107-7.028,0.684-10.486c0.661-3.957,2.507-7.603,3.765-11.414
			c1.417-4.294,2.091-8.811,3.593-13.077c1.923-5.46,5.142-10.354,8.472-15.129c8.061-0.513,14.91-4.092,21.42-7.459
			c6.508-3.368,13.61-6.261,20.289-6.782c0.109-0.008,0.217-0.019,0.324-0.031c4.009,1.719,7.603,4.855,11.856,6.093
			c4.03,1.173,8.379,0.558,12.487,1.416c5.122,1.069,9.592,4.362,14.744,5.276c3.252,0.577,6.59,0.172,9.892,0.274
			c2.842,0.087,5.672,0.558,8.392,1.387c1.843,3.549,3.251,7.372,4.49,11.177c1.337,4.112,2.537,8.395,2.144,12.702
			c-0.234,2.576-1.035,5.083-1.161,7.667c-0.128,2.628,0.446,5.262,0.219,7.884c-0.216,2.495-1.15,4.873-1.543,7.346
			c-0.388,2.44-0.24,4.964,0.89,7.692c-2.255,0.053-4.509,0.107-6.763,0.162c-1.166,0.027-2.556,0.135-3.497,1.444
			c-2.617,3.637-6.246,6.522-8.441,10.427c-1.812,3.223-2.465,7.081-1.812,10.72c0.604,3.377,2.4,6.626,5.259,8.522
			c2.86,1.897,6.823,2.23,9.733,0.412c2.837-1.772,4.267-5.144,6.837-7.287c1.25-1.043,2.761-1.787,3.823-3.021
			c1.706-1.984,1.918-4.793,2.456-7.354c0.676-3.214,1.569-6.598,3.571-8.905c2.329-2.684,5.678-4.796,6.332-8.288
			c0.38-2.03-0.075-4.11-0.485-6.133c-2.644-13.052-3.478-26.469-2.47-39.748c0.395-5.199,0.996-10.769-1.545-15.321
			c-1.999-3.581-5.612-5.9-8.976-8.246c-11.151-7.775-21.006-17.401-29.047-28.361c4.378-6.606,6.22-14.819,6.4-22.814
			c0.214-9.459-1.67-18.819-3.165-28.161c-1.495-9.343-3.022-19.005-0.995-28.861c1.787-8.681,5.318-16.932,9.937-24.542
			c1.18,2.933,2.721,5.75,5.035,7.878c1.579,1.449,3.461,2.526,5.123,3.88c5.832,4.754,8.64,12.653,14.932,16.78
			c1.605,1.053,3.881,2.086,4.193,4.073c0.876,5.601,1.225,11.316,3.289,16.596c0.683,1.748,1.538,3.54,3.077,4.616
			c1.203,0.84,2.691,1.145,4.142,1.368c3.062,0.472,6.166,0.668,9.264,0.586c1.396-0.037,2.874-0.161,4.004-0.981
			c0.894-0.651,1.45-1.656,2.026-2.6c1.894-3.104,4.311-5.889,7.116-8.202c0.965-0.794,1.992-1.551,2.705-2.577
			C453.477,198.858,452.915,195.454,452.226,192.462z"/>
		<path style="fill:none;stroke:#FFFFFF;stroke-linecap:round;stroke-linejoin:round;stroke-miterlimit:10;" d="M250.28,245.822
			c-0.117,6.064-0.206,12.296,1.909,17.98c1.453,3.906,3.879,7.357,6.108,10.879c2.468,3.899,4.721,7.935,6.744,12.083
			c1.087,2.228,2.124,4.552,2.281,7.025c0.011,0.168,0.019,0.336,0.024,0.503"/>
		<path style="fill:none;stroke:#FFFFFF;stroke-linecap:round;stroke-linejoin:round;stroke-miterlimit:10;" d="M339.975,295.639
			c4.324-1.973,7.275-7.078,10.713-10.745c6.241-6.654,15.203-10.302,21.29-17.098c0.488-0.545,0.954-1.106,1.397-1.683"/>
		<path style="fill:none;stroke:#FFFFFF;stroke-linecap:round;stroke-linejoin:round;stroke-miterlimit:10;" d="M297.259,308.458
			c1.597-2.218,2.715-4.875,4.697-6.777c1.542-1.481,3.512-2.413,5.361-3.484c7.756-4.492,13.793-11.872,16.657-20.365"/>
		<path style="fill:none;stroke:#FFFFFF;stroke-linecap:round;stroke-linejoin:round;stroke-miterlimit:10;" d="M388.388,302.14
			c2.052,2.031,3.753,4.343,5.202,6.826"/>
		<path style="fill:none;stroke:#FFFFFF;stroke-linecap:round;stroke-linejoin:round;stroke-miterlimit:10;" d="M65.484,304.466
			c3.679-3.316,7.843-6.21,10.676-10.272c5.657-8.109,4.844-18.911,7.281-28.493c2.391-9.401,7.948-17.633,13.406-25.651"/>
		<path style="fill:none;stroke:#FFFFFF;stroke-linecap:round;stroke-linejoin:round;stroke-miterlimit:10;" d="M70.236,329.454
			c-0.369-1.206-0.67-2.428-0.846-3.678c-0.649-4.616,0.447-9.279,1.534-13.812"/>
		<path style="fill:none;stroke:#FFFFFF;stroke-linecap:round;stroke-linejoin:round;stroke-miterlimit:10;" d="M93.303,300.702
			c0.174,2.875,0.073,5.764-0.29,8.62"/>
		<path style="fill:none;stroke:#FFFFFF;stroke-linecap:round;stroke-linejoin:round;stroke-miterlimit:10;" d="M96.395,259.813
			c-8.741,9.645-11.29,23.426-11.332,36.442c-0.015,4.467,0.21,9.026-1.065,13.307c-1.103,3.702-3.267,6.985-4.841,10.513
			c-1.398,3.133-2.238,6.208-2.595,9.379"/>
		<path style="fill:none;stroke:#FFFFFF;stroke-linecap:round;stroke-linejoin:round;stroke-miterlimit:10;" d="M71.39,270.869
			c1.723-5.87,4.686-10.722,8.788-15.541c2.608-3.064,5.668-5.825,7.539-9.388c1.668-3.176,2.281-6.781,2.962-10.304
			c1.319-6.83,3.131-13.9,7.767-19.086"/>
		<path style="fill:none;stroke:#FFFFFF;stroke-linecap:round;stroke-linejoin:round;stroke-miterlimit:10;" d="M108.792,201.41
			c-4.358,5.673-6.676,12.881-6.443,20.031c0.156,4.795,1.415,9.575,0.851,14.339c-0.364,3.068-1.474,6.008-1.85,9.074
			c-0.404,3.299,0.086,6.698,1.365,9.765"/>
		<path style="fill:none;stroke:#FFFFFF;stroke-linecap:round;stroke-linejoin:round;stroke-miterlimit:10;" d="M247.039,171.076
			c-2.47,0.504-4.976,0.834-7.493,0.981c-9.987,0.583-19.895-1.629-29.823-2.868c-9.928-1.238-20.434-1.413-29.449,2.928"/>
		<path style="fill:none;stroke:#FFFFFF;stroke-linecap:round;stroke-linejoin:round;stroke-miterlimit:10;" d="M384.206,143.6
			c-0.771,5.025,0.331,10.169,2.07,14.946"/>
		<path style="fill:none;stroke:#FFFFFF;stroke-linecap:round;stroke-linejoin:round;stroke-miterlimit:10;" d="M124.16,324.228
			c0.578,2.094,0.783,4.29,1.469,6.355c0.986,2.968,3.481,5.048,5.71,7.6c2.017,2.308,3.53,4.966,4.887,7.735"/>
		<path style="fill:none;stroke:#FFFFFF;stroke-linecap:round;stroke-linejoin:round;stroke-miterlimit:10;" d="M122.661,185.042
			c-8.108,9.653-13.015,21.947-14.371,34.518c-0.737,6.834-0.465,13.736,0.697,20.49"/>
		<g>
			<path style="fill:none;stroke:#FFFFFF;stroke-linecap:round;stroke-linejoin:round;stroke-miterlimit:10;" d="M145.262,333.063
				c-0.068-2.529,0.103-5.074-0.165-7.591c-0.379-3.566-1.625-6.975-3.152-10.836c8.034-8.433,16.302-17.248,19.987-28.297
				c1.869-5.604,2.486-11.607,4.815-17.037c1.542-3.595,3.84-6.972,4.319-10.855c0.278-2.26-0.086-4.552-0.62-6.765
				c-1.372-5.689-3.853-11.043-5.649-16.613c-1.797-5.569-2.901-11.595-1.43-17.259"/>
			<path style="fill:none;stroke:#FFFFFF;stroke-linecap:round;stroke-linejoin:round;stroke-miterlimit:10;" d="M170.038,262.28
				c10.396,3.255,18.794,11.348,28.116,17.253c0.395,0.25,0.792,0.497,1.191,0.74"/>
		</g>
		<path style="fill:none;stroke:#FFFFFF;stroke-linecap:round;stroke-linejoin:round;stroke-miterlimit:10;" d="M424.358,92.873
			c-0.758,1.564-1.573,3.101-2.443,4.605"/>
		<path style="fill:none;stroke:#FFFFFF;stroke-linecap:round;stroke-linejoin:round;stroke-miterlimit:10;" d="M406.336,103.398
			c1.492-5.583,5.242-10.12,9.436-14.216"/>
		<path style="fill:none;stroke:#FFFFFF;stroke-linecap:round;stroke-linejoin:round;stroke-miterlimit:10;" d="M420.063,94.671
			c-1.874,2.661-4.277,4.948-7.029,6.687c-0.587-0.524-0.312-1.483,0.032-2.192c2.821-5.811,7.266-10.648,11.647-15.395"/>
		<path style="fill:none;stroke:#FFFFFF;stroke-linecap:round;stroke-linejoin:round;stroke-miterlimit:10;" d="M443.345,80.494
			c-3.525,4.845-7.1,9.78-9.072,15.438c-0.337,0.964-0.506,2.277,0.379,2.786c0.7,0.403,1.578-0.016,2.236-0.485
			c1.322-0.943,2.479-2.116,3.404-3.451"/>
		<path style="fill:none;stroke:#FFFFFF;stroke-linecap:round;stroke-linejoin:round;stroke-miterlimit:10;" d="M434.37,197.982
			c2.13,1.367,5.027,1.685,6.512,3.734c0.347,0.481,0.596,1.057,0.571,1.649c-0.025,0.593-0.372,1.192-0.927,1.4
			c-0.368,0.137-0.783,0.094-1.156-0.029c-1.291-0.423-2.133-1.73-2.392-3.065c-0.023-0.118-0.042-0.236-0.058-0.354"/>
		<path style="fill:none;stroke:#FFFFFF;stroke-linecap:round;stroke-linejoin:round;stroke-miterlimit:10;" d="M413.609,131.086
			c3.039-0.177,6.103,1.621,7.429,4.361c0.188,0.389,0.347,0.811,0.323,1.243c-0.022,0.369-0.176,0.72-0.377,1.03
			c-1.065,1.648-3.602,2.094-5.165,0.908c-1.049-0.795-1.579-2.105-1.835-3.396C413.729,133.941,413.7,132.612,413.609,131.086z"/>
	</g>
</g>
</svg>
